<?xml version="1.0" encoding="UTF-8" standalone="no"?>
<svg
   xmlns:dc="http://purl.org/dc/elements/1.1/"
   xmlns:cc="http://creativecommons.org/ns#"
   xmlns:rdf="http://www.w3.org/1999/02/22-rdf-syntax-ns#"
   xmlns:svg="http://www.w3.org/2000/svg"
   xmlns="http://www.w3.org/2000/svg"
   xmlns:sodipodi="http://sodipodi.sourceforge.net/DTD/sodipodi-0.dtd"
   xmlns:inkscape="http://www.inkscape.org/namespaces/inkscape"
   version="1.1"
   width="575.20325"
   height="578.25201"
   viewBox="0 0 575.20325 578.25201"
   id="svg125"
   sodipodi:docname="logo-no-background.svg"
   inkscape:version="0.92.5 (2060ec1f9f, 2020-04-08)">
  <metadata
     id="metadata131">
    <rdf:RDF>
      <cc:Work
         rdf:about="">
        <dc:format>image/svg+xml</dc:format>
        <dc:type
           rdf:resource="http://purl.org/dc/dcmitype/StillImage" />
        <dc:title />
      </cc:Work>
    </rdf:RDF>
  </metadata>
  <defs
     id="defs129" />
  <sodipodi:namedview
     pagecolor="#ffffff"
     bordercolor="#666666"
     borderopacity="1"
     objecttolerance="10"
     gridtolerance="10"
     guidetolerance="10"
     inkscape:pageopacity="0"
     inkscape:pageshadow="2"
     inkscape:window-width="1920"
     inkscape:window-height="996"
     id="namedview127"
     showgrid="false"
     inkscape:zoom="0.69579307"
     inkscape:cx="214.70179"
     inkscape:cy="247.53118"
     inkscape:window-x="0"
     inkscape:window-y="0"
     inkscape:window-maximized="1"
     inkscape:current-layer="svg125" />
  <g
     id="g4657"
     inkscape:label="donut"
     style="display:inline"
     transform="translate(-210.36584,0.42276001)">
    <ellipse
       inkscape:label="elipse red"
       ry="289.12601"
       rx="287.60162"
       cy="288.70325"
       cx="497.96747"
       id="path4651"
       style="display:inline;fill:#ff0000;fill-opacity:1" />
    <ellipse
       inkscape:label="ellipse white"
       style="display:inline;fill:#ffffff;fill-opacity:1;stroke-width:0.90747678"
       id="ellipse4653"
       cx="497.96747"
       cy="288.70325"
       rx="263.21136"
       ry="260.1626" />
  </g>
  <g
     transform="translate(-211.20818,0.78753894)"
     id="g123"
     style="display:inline">
    <svg
       viewBox="0 0 274 247"
       data-background-color="#ffffff"
       preserveAspectRatio="xMidYMid meet"
       height="901"
       width="1000"
       version="1.1"
       id="svg121"
       style="display:inline">
      <g
         id="tight-bounds"
         transform="translate(0.23080047,-0.10000044)"
         style="display:inline">
        <svg
           viewBox="0 0 273.5384 247.2"
           height="247.2"
           width="273.53839"
           version="1.1"
           id="svg116"
           style="display:inline">
          <g
             id="g112"
             style="display:inline">
            <svg
               viewBox="0 0 273.5384 247.2"
               height="247.2"
               width="273.53839"
               version="1.1"
               id="svg110"
               style="display:inline">
              <g
                 id="g108"
                 style="display:inline">
                <svg
                   viewBox="0 0 395.52 357.43627"
                   height="247.2"
                   width="273.53839"
                   version="1.1"
                   id="svg106">
                  <g
                     transform="translate(0,255.25455)"
                     id="g24"
                     style="display:none">
                    <svg
                       viewBox="0 0 395.52 102.18172"
                       height="102.18172"
                       width="395.51999"
                       version="1.1"
                       id="svg22">
                      <g
                         id="textblocktransform">
                        <svg
                           viewBox="0 0 395.52 102.18172"
                           height="102.18172"
                           width="395.51999"
                           id="textblock"
                           version="1.1">
                          <g
                             id="g9">
                            <svg
                               viewBox="0 0 395.52 55.111937"
                               height="55.111938"
                               width="395.51999"
                               version="1.1"
                               id="svg7">
                              <g
                                 id="g5">
                                <svg
                                   width="395.51999"
                                   viewBox="2.27 -42.189999 315.36002 43.949997"
                                   height="55.111938"
                                   data-palette-color="#ff0000"
                                   version="1.1"
                                   id="svg3">
                                <path
                                   d="m 31.37,0 v -14.75 l 1.76,-3.32 V 0 Z m 3.52,0 v -21.48 l 1.76,-3.32 V 0 Z m 3.51,0 v -28.13 l 1.76,-3.34 V 0 Z m 1.3,-40.43 -13.09,24.85 -1,-1.83 12.11,-23.02 z m -3.98,0 -11.14,21.02 -1.02,-1.85 10.16,-19.17 z M 12.82,0 v -17.87 l 1.76,3.32 V 0 Z M 9.3,0 v -24.56 l 1.76,3.32 V 0 Z M 5.79,0 v -31.25 l 1.75,3.34 V 0 Z M 4.25,-40.43 20,-10.55 H 18.02 L 4.03,-37.08 V 0 H 2.27 v -40.43 z m 4,0 15.72,29.88 h -2 L 6.25,-40.43 Z M 41.92,0 v -37.08 l -13.99,26.53 h -2 l -15.7,-29.88 h 1.98 l 14.74,28.03 14.72,-28.03 h 2.01 V 0 Z m 34.86,-17.77 v 0 -22.66 h 1.76 v 22.66 q 0,3.71 -2.93,6.34 -2.93,2.64 -7.03,2.64 -4.1,0 -7.03,-2.64 -2.93,-2.63 -2.93,-6.34 v 0 -22.66 h 1.75 v 22.66 q 0,2.98 2.41,5.1 2.4,2.12 5.8,2.12 3.39,0 5.79,-2.12 2.41,-2.12 2.41,-5.1 z m 3.52,0 v 0 -22.66 h 1.75 v 22.66 q 0,2.54 -1.07,4.84 -1.08,2.31 -2.88,3.99 -1.81,1.69 -4.3,2.68 -2.49,0.99 -5.22,0.99 -2.74,0 -5.23,-0.99 -2.49,-0.99 -4.29,-2.68 -1.81,-1.68 -2.89,-3.99 -1.07,-2.3 -1.07,-4.84 v 0 -22.66 h 1.76 v 22.66 q 0,2.9 1.57,5.38 1.58,2.48 4.28,3.92 2.69,1.44 5.87,1.44 3.17,0 5.87,-1.44 2.7,-1.44 4.27,-3.92 1.58,-2.48 1.58,-5.38 z m 3.51,0 v 0 -22.66 h 1.76 v 22.66 q 0,3.24 -1.36,6.21 -1.35,2.97 -3.62,5.11 -2.27,2.15 -5.42,3.42 -3.15,1.27 -6.59,1.27 -3.45,0 -6.6,-1.27 -3.14,-1.27 -5.42,-3.42 -2.27,-2.14 -3.62,-5.11 -1.36,-2.97 -1.36,-6.21 v 0 -22.66 h 1.76 v 22.66 q 0,3.85 2.05,7.14 2.05,3.28 5.56,5.2 3.5,1.91 7.63,1.91 4.12,0 7.63,-1.91 3.5,-1.92 5.55,-5.2 2.05,-3.29 2.05,-7.14 z m 3.52,0 v 0 -22.66 h 1.75 v 22.66 q 0,5.27 -2.75,9.77 -2.76,4.51 -7.49,7.13 -4.72,2.63 -10.26,2.63 -5.55,0 -10.27,-2.63 -4.72,-2.62 -7.48,-7.13 -2.76,-4.5 -2.76,-9.77 v 0 -22.66 h 1.76 v 22.66 q 0,3.59 1.49,6.88 1.49,3.3 4,5.68 2.51,2.38 5.99,3.79 3.48,1.42 7.27,1.42 3.78,0 7.26,-1.42 3.48,-1.41 5.99,-3.79 2.52,-2.38 4.01,-5.68 1.49,-3.29 1.49,-6.88 z m 22.58,-6.84 v 0 h -2.96 q -1.88,0 -2.71,-0.96 -0.83,-0.97 -0.83,-2.56 v 0 q 0,-3.51 5.25,-3.51 v 0 q 4.93,0 7.42,1.46 v 0 l -1.41,1.08 q -1.71,-0.78 -6.01,-0.78 v 0 q -2.1,0 -2.82,0.46 -0.72,0.46 -0.72,1.29 0,0.84 0.39,1.3 0.39,0.46 1.44,0.46 v 0 h 3.03 q 3.3,0 5.95,1.13 2.64,1.12 4.35,3.06 1.71,1.94 2.62,4.47 0.9,2.52 0.9,5.41 v 0 q 0,2.34 -0.66,4.44 -0.66,2.1 -1.99,3.86 -1.33,1.75 -3.2,3.04 -1.87,1.28 -4.44,2 -2.58,0.72 -5.58,0.72 v 0 q -4.71,0 -8.83,-1.43 -4.11,-1.43 -6.84,-3.99 v 0 l 1.41,-1.05 q 2.49,2.24 6.24,3.48 3.75,1.23 8.02,1.23 v 0 q 3.34,0 6.04,-0.96 2.7,-0.97 4.45,-2.65 1.74,-1.69 2.68,-3.91 0.94,-2.22 0.94,-4.78 v 0 q 0,-3.4 -1.37,-6.14 -1.36,-2.75 -4.16,-4.46 -2.79,-1.71 -6.6,-1.71 z m -2.96,1.76 v 0 h 2.79 q 4.95,0 7.75,3.03 2.79,3.02 2.79,7.52 v 0 q 0,4.56 -3.24,7.55 -3.25,2.99 -9.11,2.99 v 0 q -3.91,0 -7.3,-1.07 -3.39,-1.08 -5.64,-3.03 v 0 l 1.37,-1.1 q 2,1.64 5.04,2.54 3.04,0.9 6.53,0.9 v 0 q 5.15,0 7.87,-2.46 2.73,-2.47 2.73,-6.32 v 0 q 0,-3.81 -2.29,-6.3 -2.28,-2.49 -6.53,-2.49 v 0 h -2.76 q -3.56,0 -5.34,-1.96 -1.79,-1.95 -1.79,-5.08 0,-3.12 2.21,-5.07 2.21,-1.96 6.63,-1.96 v 0 q 3.1,0 5.76,0.72 2.66,0.72 4.4,2.07 v 0 l -1.39,1.07 q -3.06,-2.1 -8.77,-2.1 v 0 q -3.68,0 -5.38,1.45 -1.7,1.46 -1.7,3.82 v 0 q 0,2.4 1.26,3.84 1.26,1.44 4.11,1.44 z m 0,3.51 v 0 h 2.69 q 3.56,0 5.35,1.98 1.78,1.98 1.78,5.06 v 0 q 0,3.12 -2.21,5.07 -2.21,1.96 -6.63,1.96 v 0 q -3.1,0 -5.77,-0.72 -2.68,-0.72 -4.41,-2.07 v 0 l 1.39,-1.07 q 3.05,2.1 8.79,2.1 v 0 q 3.69,0 5.38,-1.45 1.7,-1.46 1.7,-3.82 0,-2.37 -1.27,-3.83 -1.27,-1.45 -4.13,-1.45 v 0 h -2.66 q -5,0 -7.82,-2.99 -2.82,-2.99 -2.82,-7.56 0,-4.56 3.25,-7.55 3.24,-2.99 9.1,-2.99 v 0 q 3.91,0 7.29,1.07 3.38,1.08 5.63,3.03 v 0 l -1.37,1.1 q -2,-1.64 -5.03,-2.54 -3.03,-0.9 -6.52,-0.9 v 0 q -5.15,0 -7.87,2.46 -2.72,2.47 -2.72,6.32 v 0 q 0,3.84 2.29,6.32 2.3,2.47 6.59,2.47 z m 0,3.52 v 0 h 2.69 q 1.88,0 2.71,0.98 0.83,0.97 0.83,2.54 v 0 q 0,3.51 -5.25,3.51 v 0 q -4.96,0 -7.45,-1.46 v 0 l 1.42,-1.08 q 1.71,0.78 6.03,0.78 v 0 q 2.1,0 2.82,-0.46 0.72,-0.46 0.72,-1.29 v 0 q 0,-0.81 -0.4,-1.29 -0.41,-0.47 -1.48,-0.47 v 0 h -2.64 q -3.37,0 -6.09,-1.1 -2.72,-1.1 -4.47,-3.03 -1.74,-1.93 -2.67,-4.47 -0.93,-2.54 -0.93,-5.47 v 0 q 0,-2.34 0.66,-4.44 0.66,-2.1 1.99,-3.86 1.33,-1.75 3.2,-3.04 1.87,-1.28 4.44,-2 2.58,-0.72 5.58,-0.72 v 0 q 4.71,0 8.82,1.43 4.1,1.43 6.83,3.99 v 0 l -1.41,1.05 q -2.49,-2.24 -6.23,-3.48 -3.74,-1.23 -8.01,-1.23 v 0 q -3.34,0 -6.04,0.96 -2.7,0.97 -4.44,2.65 -1.75,1.69 -2.69,3.91 -0.94,2.22 -0.94,4.78 v 0 q 0,3.45 1.39,6.21 1.39,2.75 4.25,4.43 2.86,1.67 6.76,1.67 z M 138.22,0 v -40.43 h 1.76 V 0 Z m -3.51,0 v -40.43 h 1.76 V 0 Z m -3.52,0 v -40.43 h 1.76 V 0 Z m -3.51,0 v -40.43 h 1.76 V 0 Z m 47.46,-26.61 v 0 l -1.44,0.95 q -1.32,-1.95 -3.43,-3.09 -2.12,-1.13 -4.58,-1.13 v 0 q -4.01,0 -6.84,2.83 -2.83,2.83 -2.83,6.84 0,4 2.83,6.83 2.83,2.83 6.84,2.83 v 0 q 2.46,0 4.58,-1.14 2.11,-1.15 3.43,-3.1 v 0 l 1.41,1.02 q -1.56,2.3 -4.05,3.64 -2.49,1.34 -5.37,1.34 v 0 q -2.32,0 -4.43,-0.9 -2.11,-0.91 -3.65,-2.44 -1.54,-1.54 -2.44,-3.65 -0.91,-2.12 -0.91,-4.43 0,-2.32 0.91,-4.44 0.9,-2.11 2.44,-3.65 1.54,-1.53 3.65,-2.44 2.11,-0.9 4.43,-0.9 v 0 q 2.9,0 5.39,1.35 2.49,1.36 4.06,3.68 z m 2.9,-2 v 0 l -1.46,0.95 q -1.81,-2.64 -4.68,-4.19 -2.87,-1.55 -6.21,-1.55 v 0 q -3.59,0 -6.62,1.77 -3.03,1.77 -4.8,4.8 -1.77,3.03 -1.77,6.62 0,3.58 1.77,6.61 1.77,3.03 4.8,4.8 3.03,1.77 6.62,1.77 v 0 q 3.34,0 6.22,-1.56 2.88,-1.57 4.69,-4.23 v 0 l 1.44,1 q -2.05,3.03 -5.31,4.79 -3.26,1.76 -7.04,1.76 v 0 q -4.05,0 -7.5,-2.01 -3.44,-2 -5.44,-5.44 -2,-3.44 -2,-7.49 0,-4.06 2,-7.5 2,-3.44 5.44,-5.44 3.45,-2.01 7.5,-2.01 v 0 q 3.78,0 7.04,1.76 3.26,1.76 5.31,4.79 z m 2.93,-1.96 v 0 l -1.46,0.96 q -2.3,-3.37 -5.95,-5.34 -3.65,-1.96 -7.87,-1.96 v 0 q -3.4,0 -6.5,1.31 -3.1,1.32 -5.33,3.56 -2.23,2.23 -3.55,5.33 -1.32,3.1 -1.32,6.5 0,3.39 1.32,6.49 1.32,3.1 3.55,5.33 2.23,2.24 5.33,3.56 3.1,1.31 6.5,1.31 v 0 q 4.25,0 7.88,-1.97 3.64,-1.98 5.94,-5.35 v 0 l 1.41,1.05 q -2.54,3.71 -6.55,5.87 -4.02,2.16 -8.68,2.16 v 0 q -5.01,0 -9.25,-2.48 -4.25,-2.47 -6.73,-6.72 -2.48,-4.25 -2.48,-9.25 0,-5.01 2.48,-9.26 2.48,-4.25 6.73,-6.72 4.24,-2.48 9.25,-2.48 v 0 q 4.69,0 8.71,2.18 4.03,2.19 6.57,5.92 z m 2.88,-2 v 0 l -1.46,0.95 q -2.79,-4.07 -7.19,-6.44 -4.41,-2.37 -9.51,-2.37 v 0 q -4.1,0 -7.85,1.6 -3.75,1.6 -6.46,4.31 -2.71,2.71 -4.31,6.46 -1.6,3.74 -1.6,7.85 0,4.1 1.6,7.84 1.6,3.75 4.31,6.46 2.71,2.71 6.46,4.31 3.75,1.6 7.85,1.6 v 0 q 5.1,0 9.52,-2.39 4.42,-2.4 7.2,-6.47 v 0 l 1.42,1.07 q -3.03,4.4 -7.81,6.97 -4.79,2.58 -10.33,2.58 v 0 q -4.47,0 -8.53,-1.75 -4.07,-1.74 -7.01,-4.69 -2.94,-2.94 -4.69,-7 -1.74,-4.07 -1.74,-8.53 0,-4.47 1.74,-8.54 1.75,-4.06 4.69,-7 2.94,-2.95 7.01,-4.69 4.06,-1.75 8.53,-1.75 v 0 q 5.56,0 10.35,2.59 4.78,2.59 7.81,7.03 z M 187.22,0 v -40.43 h 1.76 V 0 Z m 10.55,0 v -40.43 h 1.75 v 31.64 h 14.07 v 1.76 h -14.07 v 1.76 h 14.07 v 1.75 h -14.07 v 1.76 h 14.07 V 0 Z m -3.52,0 v -40.43 h 1.76 V 0 Z m -3.52,0 v -40.43 h 1.76 V 0 Z m 35.52,-40.43 V 0 h -1.75 v -40.43 z m -3.51,0 V 0 h -1.76 v -40.43 z m -3.52,0 V 0 h -1.75 v -40.43 z m 10.55,24.61 v 7.03 h 18.7 v 1.76 h -18.7 v 1.76 h 18.7 v 1.75 h -18.7 v 1.76 h 18.7 V 0 h -20.46 v -40.43 h 20.46 v 1.76 h -18.7 v 1.76 h 18.7 v 1.75 h -18.7 v 1.76 h 18.7 v 1.76 h -18.7 v 7.03 h 9.59 v 1.76 h -9.59 v 1.76 h 9.59 v 1.75 h -9.59 v 1.76 h 9.59 v 1.76 z m 39.35,-8.79 v 0 h -2.95 q -1.88,0 -2.71,-0.96 -0.83,-0.97 -0.83,-2.56 v 0 q 0,-3.51 5.25,-3.51 v 0 q 4.93,0 7.42,1.46 v 0 l -1.42,1.08 q -1.71,-0.78 -6,-0.78 v 0 q -2.1,0 -2.82,0.46 -0.72,0.46 -0.72,1.29 0,0.84 0.39,1.3 0.39,0.46 1.44,0.46 v 0 h 3.03 q 3.29,0 5.94,1.13 2.65,1.12 4.36,3.06 1.71,1.94 2.61,4.47 0.9,2.52 0.9,5.41 v 0 q 0,2.34 -0.65,4.44 -0.66,2.1 -1.99,3.86 -1.33,1.75 -3.2,3.04 -1.87,1.28 -4.45,2 -2.57,0.72 -5.57,0.72 v 0 q -4.72,0 -8.83,-1.43 -4.11,-1.43 -6.85,-3.99 v 0 l 1.42,-1.05 q 2.49,2.24 6.24,3.48 3.74,1.23 8.02,1.23 v 0 q 3.34,0 6.04,-0.96 2.7,-0.97 4.44,-2.65 1.75,-1.69 2.69,-3.91 0.94,-2.22 0.94,-4.78 v 0 q 0,-3.4 -1.37,-6.14 -1.37,-2.75 -4.16,-4.46 -2.8,-1.71 -6.61,-1.71 z m -2.95,1.76 v 0 h 2.78 q 4.96,0 7.75,3.03 2.8,3.02 2.8,7.52 v 0 q 0,4.56 -3.25,7.55 -3.25,2.99 -9.1,2.99 v 0 q -3.91,0 -7.3,-1.07 -3.4,-1.08 -5.64,-3.03 v 0 l 1.36,-1.1 q 2.01,1.64 5.04,2.54 3.04,0.9 6.54,0.9 v 0 q 5.15,0 7.87,-2.46 2.72,-2.47 2.72,-6.32 v 0 q 0,-3.81 -2.28,-6.3 -2.28,-2.49 -6.53,-2.49 v 0 h -2.76 q -3.57,0 -5.35,-1.96 -1.78,-1.95 -1.78,-5.08 0,-3.12 2.21,-5.07 2.21,-1.96 6.63,-1.96 v 0 q 3.1,0 5.76,0.72 2.66,0.72 4.39,2.07 v 0 l -1.39,1.07 q -3.05,-2.1 -8.76,-2.1 v 0 q -3.69,0 -5.39,1.45 -1.69,1.46 -1.69,3.82 v 0 q 0,2.4 1.26,3.84 1.25,1.44 4.11,1.44 z m 0,3.51 v 0 h 2.68 q 3.57,0 5.35,1.98 1.78,1.98 1.78,5.06 v 0 q 0,3.12 -2.21,5.07 -2.21,1.96 -6.62,1.96 v 0 q -3.1,0 -5.78,-0.72 -2.67,-0.72 -4.41,-2.07 v 0 l 1.4,-1.07 q 3.05,2.1 8.79,2.1 v 0 q 3.68,0 5.38,-1.45 1.7,-1.46 1.7,-3.82 0,-2.37 -1.27,-3.83 -1.27,-1.45 -4.13,-1.45 v 0 h -2.66 q -5.01,0 -7.83,-2.99 -2.82,-2.99 -2.82,-7.56 0,-4.56 3.25,-7.55 3.25,-2.99 9.11,-2.99 v 0 q 3.9,0 7.29,1.07 3.38,1.08 5.62,3.03 v 0 l -1.36,1.1 q -2.01,-1.64 -5.03,-2.54 -3.03,-0.9 -6.52,-0.9 v 0 q -5.15,0 -7.88,2.46 -2.72,2.47 -2.72,6.32 v 0 q 0,3.84 2.3,6.32 2.29,2.47 6.59,2.47 z m 0,3.52 v 0 h 2.68 q 1.88,0 2.71,0.98 0.83,0.97 0.83,2.54 v 0 q 0,3.51 -5.24,3.51 v 0 q -4.96,0 -7.45,-1.46 v 0 l 1.42,-1.08 q 1.7,0.78 6.03,0.78 v 0 q 2.1,0 2.82,-0.46 0.72,-0.46 0.72,-1.29 v 0 q 0,-0.81 -0.41,-1.29 -0.4,-0.47 -1.47,-0.47 v 0 h -2.64 q -3.37,0 -6.09,-1.1 -2.72,-1.1 -4.47,-3.03 -1.75,-1.93 -2.67,-4.47 -0.93,-2.54 -0.93,-5.47 v 0 q 0,-2.34 0.66,-4.44 0.66,-2.1 1.99,-3.86 1.33,-1.75 3.2,-3.04 1.86,-1.28 4.44,-2 2.58,-0.72 5.58,-0.72 v 0 q 4.71,0 8.81,1.43 4.1,1.43 6.84,3.99 v 0 l -1.42,1.05 q -2.49,-2.24 -6.22,-3.48 -3.74,-1.23 -8.01,-1.23 v 0 q -3.35,0 -6.04,0.96 -2.7,0.97 -4.45,2.65 -1.74,1.69 -2.68,3.91 -0.94,2.22 -0.94,4.78 v 0 q 0,3.45 1.39,6.21 1.39,2.75 4.25,4.43 2.85,1.67 6.76,1.67 z m 37.06,-8.79 v 0 h -2.96 q -1.88,0 -2.71,-0.96 -0.83,-0.97 -0.83,-2.56 v 0 q 0,-3.51 5.25,-3.51 v 0 q 4.93,0 7.42,1.46 v 0 l -1.41,1.08 q -1.71,-0.78 -6.01,-0.78 v 0 q -2.1,0 -2.82,0.46 -0.72,0.46 -0.72,1.29 0,0.84 0.39,1.3 0.39,0.46 1.44,0.46 v 0 h 3.03 q 3.3,0 5.95,1.13 2.64,1.12 4.35,3.06 1.71,1.94 2.62,4.47 0.9,2.52 0.9,5.41 v 0 q 0,2.34 -0.66,4.44 -0.66,2.1 -1.99,3.86 -1.33,1.75 -3.2,3.04 -1.87,1.28 -4.44,2 -2.58,0.72 -5.58,0.72 v 0 q -4.71,0 -8.83,-1.43 -4.11,-1.43 -6.84,-3.99 v 0 l 1.41,-1.05 q 2.49,2.24 6.24,3.48 3.75,1.23 8.02,1.23 v 0 q 3.34,0 6.04,-0.96 2.7,-0.97 4.45,-2.65 1.74,-1.69 2.68,-3.91 0.94,-2.22 0.94,-4.78 v 0 q 0,-3.4 -1.37,-6.14 -1.36,-2.75 -4.16,-4.46 -2.79,-1.71 -6.6,-1.71 z m -2.96,1.76 v 0 h 2.79 q 4.95,0 7.75,3.03 2.79,3.02 2.79,7.52 v 0 q 0,4.56 -3.24,7.55 -3.25,2.99 -9.11,2.99 v 0 q -3.91,0 -7.3,-1.07 -3.39,-1.08 -5.64,-3.03 v 0 l 1.37,-1.1 q 2,1.64 5.04,2.54 3.04,0.9 6.53,0.9 v 0 q 5.15,0 7.87,-2.46 2.73,-2.47 2.73,-6.32 v 0 q 0,-3.81 -2.29,-6.3 -2.28,-2.49 -6.53,-2.49 v 0 h -2.76 q -3.56,0 -5.34,-1.96 -1.79,-1.95 -1.79,-5.08 0,-3.12 2.21,-5.07 2.21,-1.96 6.63,-1.96 v 0 q 3.1,0 5.76,0.72 2.66,0.72 4.4,2.07 v 0 l -1.39,1.07 q -3.06,-2.1 -8.77,-2.1 v 0 q -3.68,0 -5.38,1.45 -1.7,1.46 -1.7,3.82 v 0 q 0,2.4 1.26,3.84 1.26,1.44 4.11,1.44 z m 0,3.51 v 0 h 2.69 q 3.56,0 5.35,1.98 1.78,1.98 1.78,5.06 v 0 q 0,3.12 -2.21,5.07 -2.21,1.96 -6.63,1.96 v 0 q -3.1,0 -5.77,-0.72 -2.68,-0.72 -4.41,-2.07 v 0 l 1.39,-1.07 q 3.05,2.1 8.79,2.1 v 0 q 3.69,0 5.38,-1.45 1.7,-1.46 1.7,-3.82 0,-2.37 -1.27,-3.83 -1.27,-1.45 -4.13,-1.45 v 0 h -2.66 q -5,0 -7.82,-2.99 -2.82,-2.99 -2.82,-7.56 0,-4.56 3.25,-7.55 3.24,-2.99 9.1,-2.99 v 0 q 3.91,0 7.29,1.07 3.38,1.08 5.63,3.03 v 0 l -1.37,1.1 q -2,-1.64 -5.03,-2.54 -3.03,-0.9 -6.52,-0.9 v 0 q -5.15,0 -7.87,2.46 -2.72,2.47 -2.72,6.32 v 0 q 0,3.84 2.29,6.32 2.3,2.47 6.59,2.47 z m 0,3.52 v 0 h 2.69 q 1.88,0 2.71,0.98 0.83,0.97 0.83,2.54 v 0 q 0,3.51 -5.25,3.51 v 0 q -4.96,0 -7.45,-1.46 v 0 l 1.42,-1.08 q 1.71,0.78 6.03,0.78 v 0 q 2.1,0 2.82,-0.46 0.72,-0.46 0.72,-1.29 v 0 q 0,-0.81 -0.4,-1.29 -0.41,-0.47 -1.48,-0.47 v 0 h -2.64 q -3.37,0 -6.09,-1.1 -2.72,-1.1 -4.47,-3.03 -1.74,-1.93 -2.67,-4.47 -0.93,-2.54 -0.93,-5.47 v 0 q 0,-2.34 0.66,-4.44 0.66,-2.1 1.99,-3.86 1.33,-1.75 3.2,-3.04 1.87,-1.28 4.44,-2 2.58,-0.72 5.58,-0.72 v 0 q 4.71,0 8.82,1.43 4.1,1.43 6.83,3.99 v 0 l -1.41,1.05 q -2.49,-2.24 -6.23,-3.48 -3.74,-1.23 -8.01,-1.23 v 0 q -3.34,0 -6.04,0.96 -2.7,0.97 -4.44,2.65 -1.75,1.69 -2.69,3.91 -0.94,2.22 -0.94,4.78 v 0 q 0,3.45 1.39,6.21 1.39,2.75 4.25,4.43 2.86,1.67 6.76,1.67 z"
                                   class="wordmark-text-0"
                                   data-fill-palette-color="primary"
                                   id="text-0"
                                   inkscape:connector-curvature="0"
                                   style="opacity:1;fill:#ff0000" />
                                </svg>
                              </g>
                            </svg>
                          </g>
                          <g
                             transform="translate(114.30043,68.122542)"
                             id="g18">
                            <svg
                               viewBox="0 0 166.91915 34.059177"
                               height="34.059177"
                               width="166.91914"
                               version="1.1"
                               id="svg16">
                              <g
                                 id="g14">
                                <svg
                                   width="166.91914"
                                   viewBox="3.6500001 -38.25 200.17001 40.849998"
                                   height="34.059177"
                                   data-palette-color="#ff0000"
                                   version="1.1"
                                   id="svg12">
                                <path
                                   d="M 18.5,1.15 Q 17.85,1.15 17.63,0.83 17.4,0.5 17.4,-0.25 v 0 -4.55 q 0,-3.4 -0.2,-8.25 v 0 q -0.05,-0.9 -0.05,-2.6 v 0 Q 17,-19.2 17,-21.25 v 0 l 0.05,-2.8 q 0.05,-1.25 0.05,-2.8 v 0 q 0,-1.35 -0.05,-2.4 v 0 Q 17,-30 16.98,-30.5 16.95,-31 16.9,-31.3 v 0 l -0.1,0.35 q -0.55,3.65 -1.65,9.6 -1.1,5.95 -1.8,9.55 v 0 q -0.7,3.2 -0.9,4.55 v 0 q -0.1,0.65 -0.42,1.05 -0.33,0.4 -0.73,0.4 v 0 q -0.4,0 -0.7,-0.4 -0.3,-0.4 -0.35,-1.15 v 0 q -0.35,-2.4 -2.55,-13.4 -2.2,-11 -2.45,-11.4 v 0 q -0.15,4.5 -0.15,10.1 v 0 q 0,4.4 0.05,7.95 v 0 q 0.05,3.55 0.05,7.95 v 0 q 0,0.75 0.15,2.35 v 0 l 0.1,2.4 q 0,0.95 -0.35,1.3 v 0 q -1.45,0 -1.45,-2.6 v 0 -8.35 L 3.7,-16.1 q 0.05,-2.25 0.05,-5.1 v 0 q 0,-3.3 0.05,-5.9 v 0 l 0.1,-5.95 v -4.4 q 0,-0.25 0.23,-0.45 0.22,-0.2 0.47,-0.2 v 0 q 0.4,0 0.55,0.4 v 0 q 0.45,1.5 2.25,8.85 1.8,7.35 2.7,11.35 v 0 q 0.45,2.35 1.45,8.3 v 0 l 0.35,-1.95 q 0.15,-0.9 0.45,-2.5 v 0 q 0.6,-3.9 0.75,-4.4 v 0 l 2.3,-12.25 0.45,-2.6 0.55,-2.8 0.25,-1.5 q 0.05,-0.5 0.3,-0.78 0.25,-0.27 0.55,-0.27 v 0 q 0.25,0 0.45,0.25 0.2,0.25 0.2,0.7 v 0 4.95 q 0,3.75 0.45,11.35 v 0 q 0.35,7 0.35,11.25 v 0 q 0,1.35 0.15,4.15 v 0 q 0.1,3.6 0.1,5 v 0 q 0,1.1 -0.15,1.45 v 0 q -0.2,0.3 -0.55,0.3 z m 13.25,-0.4 q -0.8,0 -1.73,-0.52 Q 29.1,-0.3 28.5,-1 v 0 q -0.7,-0.9 -1.1,-5.05 -0.4,-4.15 -0.5,-9.5 v 0 q 0,-1.2 -0.05,-1.8 v 0 q -0.1,-12.55 -0.4,-14.85 v 0 l 0.3,-0.7 q 1.15,0.15 1.15,2.75 v 0 l 0.15,13.25 q 0,1.4 0.25,5.3 v 0 q 0.3,3.5 0.3,5.3 v 0 q 0,5.7 3.75,5.7 v 0 q 2.3,0 2.95,-10.5 v 0 l 0.05,-1 q 0.35,-13.75 0.35,-20.35 v 0 l -0.05,-0.45 q -0.05,-0.2 -0.05,-0.45 v 0 q 0,-0.55 0.85,-0.55 v 0 q 0.6,0 0.75,0.3 v 0 q 0.1,0.5 0.1,1.75 v 0 q 0,3.8 -0.3,5.1 v 0 l 0.05,0.3 q 0,0.65 -0.15,2 v 0 l -0.1,2 v 0.5 q 0.05,0.2 0.05,0.5 v 0 q -0.1,1.2 -0.1,2.3 v 0 q -0.05,0.35 -0.05,1.1 v 0 q -0.1,4.75 -0.2,8.25 v 0 q -0.15,4.35 -1.2,7.35 v 0 q -1.1,3.2 -3.55,3.2 z M 45.35,0.6 Q 44.8,0.5 44.3,0.18 43.8,-0.15 43.75,-0.6 v 0 L 44,-1 q 0.2,0 0.9,0.15 v 0 q 0.55,0.2 0.9,0.2 v 0 q 1.1,0 1.95,-0.88 0.85,-0.87 1.3,-2.27 v 0 q 0.7,-2.6 0.7,-4.9 v 0 q 0,-3.45 -2.1,-7.4 v 0 q -1.3,-2.3 -2,-3.65 -0.7,-1.35 -1.25,-3.1 v 0 q -0.65,-2.05 -0.65,-3.95 v 0 q 0,-1.8 0.9,-4.25 v 0 q 0.45,-1.15 1.27,-1.88 0.83,-0.72 1.78,-0.72 v 0 q 0.65,0 1.27,0.45 0.63,0.45 0.63,0.95 v 0 q 0,0.4 -0.65,0.4 v 0 q -0.2,0 -0.5,-0.15 v 0 q -0.3,-0.15 -0.55,-0.15 v 0 q -0.75,0 -1.35,0.6 -0.6,0.6 -0.9,1.55 v 0 q -0.6,1.85 -0.6,3.4 v 0 q 0,0.95 0.25,1.95 v 0 q 0.05,0.3 0.1,0.5 0.05,0.2 0.05,0.3 v 0 l 0.3,1 0.25,0.9 0.4,0.9 q 0.15,0.35 0.32,0.62 0.18,0.28 0.33,0.53 v 0 l 0.6,1.05 q 0.2,0.3 0.85,1.42 0.65,1.13 1.2,2.38 v 0 q 0.5,1.05 0.75,1.97 0.25,0.93 0.45,2.23 v 0 q 0.15,1.25 0.15,2.75 v 0 q 0,2.4 -0.65,4.5 v 0 q -0.9,2.5 -2.6,3.5 v 0 q -0.95,0.6 -2.2,0.6 v 0 z M 49.3,-32 h 0.05 q 0,-0.05 -0.05,-0.05 v 0 z M 59.79,0 q -1.15,0 -1.35,-0.5 v 0 q -0.25,0 -0.4,0.05 v 0 h -0.4 q -1.1,0 -1.4,-0.5 v 0 q 0,-0.35 0.4,-0.6 v 0 l 0.25,-0.25 h 1.45 l 0.2,-0.2 0.1,-0.45 0.05,-0.6 q 0,-3.05 -0.15,-5.45 v 0 l -0.1,-1.85 -0.1,-3.65 q 0,-1.95 0.15,-5.85 v 0 l 0.1,-5.8 q 0,-3.8 -0.25,-5.8 v 0 q -0.45,-0.15 -1.5,-0.15 v 0 l -0.55,0.05 q -0.3,0.05 -0.65,0.05 v 0 q -0.95,0 -0.95,-0.85 v 0 q 0,-0.2 0.45,-0.4 0.45,-0.2 0.75,-0.2 v 0 q 1.9,0 3.8,0.2 v 0 q 1.15,0.05 2.3,0.45 v 0 q 0.9,0.3 0.9,0.85 v 0 q 0,0.1 -0.15,0.4 v 0 l -1.15,0.1 q -0.35,-0.3 -1.45,-0.3 v 0 l -0.25,0.15 q 0.15,0.45 0.15,2.65 v 0 q 0,3.3 -0.05,5.95 v 0 l -0.1,5.95 q 0,2.25 0.2,5.45 v 0 q 0.15,3.65 0.15,5.5 v 0 0.65 q -0.05,0.35 -0.05,0.9 v 0 q 0,1.15 0.15,1.4 v 0 l -0.05,0.1 q 0,0.5 1.1,0.5 v 0 q 0.45,0 0.75,-0.05 v 0 h 0.75 q 1.45,0 1.45,0.7 v 0 q 0,0.45 -0.3,0.72 -0.3,0.28 -0.8,0.28 v 0 q -0.45,0 -0.8,-0.1 v 0 q -0.4,-0.05 -0.85,-0.05 v 0 q -0.3,0 -0.9,0.25 v 0 Q 60.09,0 59.79,0 Z M 73.84,0.8 72.64,0.35 Q 71.69,0.05 71.02,-0.5 70.34,-1.05 69.74,-2.15 v 0 q -1.05,-2 -1.25,-5.75 v 0 q -0.1,-1.7 -0.1,-3 v 0 -5.7 q 0,-3.25 0.2,-6.3 v 0 q 0.15,-2.25 0.45,-3.8 0.3,-1.55 0.95,-3.1 v 0 q 0.7,-1.6 1.55,-2.25 v 0 q 0.35,-0.3 1.35,-0.7 v 0 q 0.65,-0.25 1.25,-0.55 v 0 h 2 0.15 q 0.05,0.05 0.15,0.05 v 0 l 0.25,0.05 0.2,0.15 q 0.15,0.15 0.15,0.2 v 0 q 0.05,0.1 0.05,0.3 v 0 l -0.65,0.75 h -2.1 q -0.95,0 -1.72,0.92 -0.78,0.93 -1.18,2.33 v 0 q -0.4,1.25 -0.65,2.95 -0.25,1.7 -0.3,2.95 v 0 q -0.1,1.6 -0.1,2.2 v 0 l -0.1,0.25 q 0,2.8 -0.1,5.05 v 0 l -0.1,5.05 q 0,2.2 0.3,4.05 v 0 q 0.25,2 1.45,3.6 v 0 q 1.15,1.6 3.55,1.6 v 0 q 0.75,0 1.25,-0.45 v 0 q 0.75,0 0.75,0.55 v 0 q 0,0.35 -0.62,0.83 -0.63,0.47 -1.28,0.72 v 0 z m 26.5,-0.3 q -1,0 -1.25,-1 v 0 l -0.6,-2.2 q -1.4,-4.65 -2.05,-7.85 v 0 q -0.4,-1.75 -1,-4.85 v 0 q -0.71,-3.6 -1.3,-5.85 v 0 l -0.5,0.3 -0.66,0.3 0.11,19.25 v 0.75 q 0,1 -0.9,1 v 0 q -0.4,0 -0.65,-0.25 -0.25,-0.25 -0.25,-0.6 v 0 -0.75 l 0.1,-10.1 0.09,-4.85 q 0.21,-8.75 0.21,-14.9 v 0 -6.45 q 0,-0.45 0.9,-0.45 v 0 q 1.3,0 2.42,0.7 1.13,0.7 1.78,1.9 v 0 q 1.35,2.45 1.35,5.35 v 0 q 0,2.3 -1,5 v 0 q -0.3,0.75 -0.75,1.72 -0.45,0.98 -0.8,1.33 v 0 q 1.05,3.85 3.05,11.85 v 0 l 2.35,9 q 0.05,0.15 0.05,0.55 v 0 q 0,0.45 -0.18,0.78 -0.17,0.32 -0.52,0.32 z m -7.4,-22.8 q 0.4,0 1.35,-0.95 0.94,-0.95 1.35,-1.6 v 0 q 0.34,-0.7 0.59,-2.1 0.25,-1.4 0.25,-2.5 v 0 q 0,-2.05 -0.69,-4.2 v 0 q -0.35,-1.25 -1.06,-2.03 -0.69,-0.77 -1.54,-0.77 v 0 h -0.1 q -0.05,0.05 -0.15,0.05 v 0 z m 13.89,22.95 q -0.9,0 -1,-1.05 v 0 -0.65 q 0.05,-0.25 0.05,-0.6 v 0 l -0.2,-0.2 q 0.4,-1.05 0.4,-2.05 v 0 q 0,-1.15 -0.15,-3.3 v 0 l -0.1,-3.3 q 0,-2.5 0.15,-7.5 v 0 q 0.2,-4.45 0.2,-7.55 v 0 l -0.1,-3 q -0.1,-1.35 -0.1,-3 v 0 q 0,-0.75 0.35,-1.08 0.35,-0.32 1.1,-0.32 v 0 q 0.5,0 0.8,0.3 v 0 q 0.1,0.05 1.45,0.2 v 0 q 1.25,0.15 2.15,0.45 v 0 q 0.95,0.3 0.95,0.75 v 0 q 0,0.5 -0.95,1 v 0 q -2.85,-0.95 -4.05,-0.95 v 0 l -0.25,0.3 q 0.05,0.45 0.05,2.15 v 0 q 0,2.15 -0.1,3.85 v 0 q -0.05,1.75 -0.05,3.9 v 0 q 0,1.4 0.7,1.4 v 0 l 0.8,-0.05 q 0.4,-0.05 0.85,-0.05 v 0 q 1.95,0 1.95,0.9 v 0 q 0,0.55 -0.25,0.92 -0.25,0.38 -0.75,0.38 v 0 q -0.75,0 -1.15,-0.4 v 0 l -1.6,-0.25 h -0.25 l -0.25,0.25 v 0.15 q 0.1,0.85 0.1,3.95 v 0 q 0,1.95 -0.05,3.55 v 0 l -0.05,3.55 q 0,1.95 0.15,4 v 0 q 0.05,1.15 0.5,1.52 0.45,0.38 1.65,0.38 v 0 l 0.9,-0.05 q 0.45,-0.05 1,-0.05 v 0 q 1.45,0 1.45,0.65 v 0 q 0,0.9 -2.2,0.9 v 0 z m 31.6,1.95 q -1,0 -1,-3.2 v 0 -3.3 q 0,-7.2 -0.3,-11.25 v 0 L 136.98,-17 q -0.2,-1.25 -0.2,-2.2 v 0 q 0,-1.7 0.1,-3.1 v 0 l 0.1,-3.1 q 0,-1.55 -0.2,-2.35 v 0 q -1,0.7 -6.05,21.05 v 0 l -0.05,0.75 q -0.15,1.25 -0.4,2 v 0 q -0.15,0.55 -0.42,0.85 -0.28,0.3 -0.63,0.3 v 0 q -0.8,0 -1.15,-0.4 -0.35,-0.4 -0.35,-1.25 v 0 q 0,-1.35 -1.27,-7 -1.28,-5.65 -2.75,-10.85 -1.48,-5.2 -2.03,-5.75 v 0 q -0.05,1.75 -0.4,8.25 v 0 q -0.7,11.5 -0.7,18.1 v 0 l 0.05,2 q -0.2,0.65 -1.05,0.65 v 0 q -0.15,0 -0.5,-0.27 -0.35,-0.28 -0.35,-0.43 v 0 q 0,-4.5 0.8,-15.8 v 0 q 0.75,-10.5 0.75,-15.75 v 0 q 0,-0.25 -0.1,-0.5 v 0 q -0.15,-0.3 -0.15,-0.45 v 0 q 0,-0.75 1.3,-0.75 v 0 q 0.85,0 1,0.75 v 0 q 0.2,1 0.2,1.5 v 0 l 0.05,0.6 q 0.25,1.3 1.45,4 v 0 q 0.95,2.15 1.45,3.75 v 0 q 0.3,1.2 0.55,1.95 v 0 q 0.8,2.9 1.05,4.3 v 0 l 0.65,1.3 q 0.15,0.75 0.6,2.45 v 0 q 0.45,1.9 0.65,3.1 0.2,1.2 0.2,2.3 v 0 q 0.55,-0.85 3.13,-10.23 2.57,-9.37 3.02,-11.97 v 0 q 0.05,-0.1 0.08,-0.28 0.02,-0.17 0.07,-0.47 v 0 q 0.1,-0.65 0.45,-1.95 v 0 q 0.4,-1 1.2,-1 v 0 q 0.35,0 0.8,0.3 0.45,0.3 0.45,0.6 v 0 q 0,20.85 0.65,22.05 v 0 2.6 q -0.05,1.15 -0.05,2.65 v 0 q 0,3.2 0.35,4.8 v 0 q 0.05,0.05 0.08,0.15 0.02,0.1 0.07,0.25 v 0 q 0.05,0.2 0.05,0.45 v 0 q 0,0.55 -0.32,1.1 -0.33,0.55 -0.78,0.55 z m -1.65,-30.55 v -0.1 h -0.05 l -0.1,0.05 z m 15.45,28.9 q -5.85,0 -5.85,-18.4 v 0 -1.75 q 0,-13.95 3.6,-13.95 v 0 q 0.25,0 0.7,0.15 v 0 q 1.6,0.55 3.15,0.7 v 0 q 0.95,0.2 1.9,1.95 v 0 q 1.05,1.8 1.57,4.75 0.53,2.95 0.53,6.05 v 0 l -0.1,0.25 q 0,1.65 0.05,2.95 v 0 l 0.05,3 q 0,2.55 -0.2,4.6 v 0 q -0.3,3.1 -1,5.35 v 0 q -0.45,1.35 -1.03,2.25 -0.57,0.9 -1.42,1.5 v 0 q -0.8,0.6 -1.95,0.6 z m -0.2,-1.45 q 1.95,0 2.9,-2.75 v 0 q 0.95,-2.8 1.15,-5.7 v 0 q 0.2,-3 0.2,-4.8 v 0 q 0,-2 -0.3,-5.9 v 0 q -0.25,-4.35 -0.25,-5.9 v 0 l -0.2,-0.4 0.1,-0.25 q 0,-2.2 -1.23,-3.8 -1.22,-1.6 -2.97,-1.6 v 0 q -2.3,0 -2.75,2.2 v 0 q -0.1,0.75 -0.2,2.15 v 0 q 0,3.7 -0.3,5.05 v 0 q 0,0.75 -0.15,2.35 v 0 l -0.1,2.35 q 0,1.1 0.05,1.95 v 0 l 0.05,2 q 0,2.35 0.4,5.4 v 0 q 0.3,2.25 0.7,3.8 0.4,1.55 1.15,2.65 v 0 q 0.75,1.2 1.75,1.2 z m 16.75,1.1 -0.55,-0.45 q 0,-3.85 -1.23,-11.35 -1.22,-7.5 -3.22,-16.4 v 0 l -0.4,-1.55 -0.65,-2.3 q -0.3,-1.05 -0.3,-1.3 v 0 q 0,-0.15 0.22,-0.38 0.23,-0.22 0.43,-0.22 v 0 q 0.7,0 1.1,1.55 v 0 q 0.2,0.65 0.37,1.47 0.18,0.83 0.28,1.18 v 0 q 0.1,0.75 0.15,0.9 v 0 q 0.95,3.85 1.15,4.9 v 0 l 0.5,2.55 0.45,2.4 0.45,2.55 q 0.15,1.35 0.4,2.35 v 0 l 0.75,4.9 q 0,0.2 0.35,2.55 v 0 l 0.35,2.45 q 1,-3.25 1.7,-9.9 v 0 q 0.7,-6.2 2,-12.45 v 0 q 1.1,-5.4 1.55,-7.85 v 0 l 0.65,-0.25 q 0.2,0.05 0.37,0.2 0.18,0.15 0.18,0.3 v 0 q 0,1.1 -0.45,3 v 0 l -0.3,1.3 -0.85,3.95 q -0.75,3.25 -1.03,5 -0.27,1.75 -0.62,5.05 v 0 l -0.1,1.15 q -0.25,2.7 -0.38,3.65 -0.12,0.95 -0.57,2.45 v 0 q -0.4,1.5 -0.65,2.65 v 0 l -0.1,1.15 q -0.1,1.75 -0.4,3.1 v 0 q -0.4,1.7 -1.6,1.7 z m 0.55,-3.85 v -0.2 l -0.05,0.1 z m 13.74,3.9 q -0.9,0 -1,-1.05 v 0 -0.65 q 0.05,-0.25 0.05,-0.6 v 0 l -0.2,-0.2 q 0.4,-1.05 0.4,-2.05 v 0 q 0,-1.15 -0.15,-3.3 v 0 l -0.1,-3.3 q 0,-2.5 0.15,-7.5 v 0 q 0.2,-4.45 0.2,-7.55 v 0 l -0.1,-3 q -0.1,-1.35 -0.1,-3 v 0 q 0,-0.75 0.35,-1.08 0.35,-0.32 1.1,-0.32 v 0 q 0.5,0 0.8,0.3 v 0 q 0.1,0.05 1.45,0.2 v 0 q 1.25,0.15 2.15,0.45 v 0 q 0.95,0.3 0.95,0.75 v 0 q 0,0.5 -0.95,1 v 0 q -2.85,-0.95 -4.05,-0.95 v 0 l -0.25,0.3 q 0.05,0.45 0.05,2.15 v 0 q 0,2.15 -0.1,3.85 v 0 q -0.05,1.75 -0.05,3.9 v 0 q 0,1.4 0.7,1.4 v 0 l 0.8,-0.05 q 0.4,-0.05 0.85,-0.05 v 0 q 1.95,0 1.95,0.9 v 0 q 0,0.55 -0.25,0.92 -0.25,0.38 -0.75,0.38 v 0 q -0.75,0 -1.15,-0.4 v 0 l -1.6,-0.25 h -0.25 l -0.25,0.25 v 0.15 q 0.1,0.85 0.1,3.95 v 0 q 0,1.95 -0.05,3.55 v 0 l -0.05,3.55 q 0,1.95 0.15,4 v 0 q 0.05,1.15 0.5,1.52 0.45,0.38 1.65,0.38 v 0 l 0.9,-0.05 q 0.45,-0.05 1,-0.05 v 0 q 1.45,0 1.45,0.65 v 0 q 0,0.9 -2.2,0.9 v 0 z m 20.2,0.2 -0.7,-0.25 q -0.6,-0.65 -1.3,-3.45 -0.7,-2.8 -1.3,-6.3 v 0 q -0.4,-2.85 -1.15,-5.65 v 0 q -0.6,-2.5 -1.15,-2.5 v 0 h -0.15 q -1.1,0 -1.1,0.7 v 0 q 0,3.6 0.4,10.95 v 0 q 0.2,4.5 0.45,5.25 v 0 l -0.4,0.85 h -0.7 l -0.4,-0.4 q -0.8,-23.1 -0.8,-31.5 v 0 q 0,-0.55 0.08,-0.9 0.07,-0.35 0.32,-0.65 v 0 q 0.2,-0.35 0.7,-0.35 v 0 q 2.55,0 4.1,1.25 1.55,1.25 1.55,3.6 v 0 3.65 q 0,0.95 -0.62,2.55 -0.63,1.6 -1.38,2.95 v 0 l -0.65,1.25 q 0.55,2.55 2.18,9.17 1.62,6.63 1.77,7.03 v 0 q 0.05,0.05 0.13,0.25 0.07,0.2 0.32,0.6 v 0 q 0.35,0.7 0.35,1.2 v 0 q 0,0.7 -0.55,0.7 z m -6.6,-19.4 q 0.95,0 1.7,-0.95 0.75,-0.95 1.2,-2.45 v 0 q 0.8,-3.05 0.8,-4.85 v 0 q 0,-1.15 -0.12,-1.9 -0.13,-0.75 -0.43,-1.6 v 0 q -0.6,-1.75 -2.85,-1.75 v 0 q -0.25,0 -0.4,0.42 -0.15,0.43 -0.15,0.88 v 0 q 0,3.35 0.1,6.05 v 0 q 0.05,2.7 0.05,6.05 v 0 z"
                                   class="slogan-text-1"
                                   data-fill-palette-color="secondary"
                                   id="text-1"
                                   inkscape:connector-curvature="0"
                                   style="opacity:1;fill:#ff0000" />
                                </svg>
                              </g>
                            </svg>
                          </g>
                        </svg>
                      </g>
                    </svg>
                  </g>
                  <g
                     transform="translate(83.143332)"
                     id="g102"
                     style="display:inline">
                    <svg
                       viewBox="0 0 229.23334 229.23334"
                       height="229.23334"
                       width="229.23334"
                       version="1.1"
                       id="svg100"
                       style="display:inline">
                      <g
                         id="g28"
                         style="display:inline">
                        <svg
                           version="1.1"
                           id="svg26"
                           width="100%"
                           height="100%" />
                      </g>
                      <g
                         id="icon-0"
                         style="display:inline">
                        <svg
                           viewBox="0 0 229.23334 229.23334"
                           height="229.23334"
                           width="229.23334"
                           version="1.1"
                           id="svg97"
                           style="display:inline">
                          <g
                             id="g34"
                             style="display:none">
                            <path
                               d="M 0,114.617 C 0,51.316 51.316,0 114.617,0 c 63.301,0 114.617,51.316 114.616,114.617 0,63.301 -51.316,114.617 -114.616,114.616 C 51.316,229.233 0,177.917 0,114.617 Z M 114.617,217.92076 C 174.77016,210.26689 215.50475,176.38151 217.92076,114.617 211.07256,53.25533 177.80704,11.522262 114.617,11.312235 59.103332,11.127723 11.661688,53.196602 11.312235,114.617 10.968031,175.11473 54.86567,215.50475 114.617,217.92076 Z"
                               data-fill-palette-color="accent"
                               stroke="transparent"
                               id="path30"
                               inkscape:connector-curvature="0"
                               style="display:none;fill:#ff0000"
                               sodipodi:nodetypes="ssccsccssc" />
                            <circle
                               cx="114.61667"
                               cy="114.61667"
                               stroke="transparent"
                               data-fill-palette-color="accent"
                               id="ellipse32"
                               r="113.4705"
                               style="display:inline;fill:#fffff7;fill-opacity:1;stroke-width:0"
                               inkscape:highlight-color="1361931263" />
                          </g>
                          <g
                             transform="translate(46.54277,54.04105)"
                             id="g95"
                             style="display:inline">
                            <svg
                               viewBox="0 0 136.1478 121.15124"
                               height="121.15124"
                               width="136.1478"
                               version="1.1"
                               id="svg93"
                               style="display:inline">
                              <g
                                 id="g91"
                                 style="display:inline">
                                <svg
                                   version="1.1"
                                   x="0"
                                   y="0"
                                   viewBox="9.3710003 14.583742 80.257996 71.417648"
                                   enable-background="new 0 0 100 100"
                                   xml:space="preserve"
                                   height="121.15124"
                                   width="136.1478"
                                   class="icon-s-0"
                                   data-fill-palette-color="quaternary"
                                   id="s-0"
                                   style="display:inline"><g
                                   data-fill-palette-color="quaternary"
                                   id="g88"
                                   style="display:inline;fill:#000000;fill-opacity:0.96391757"><g
                                   data-fill-palette-color="quaternary"
                                   id="g86"
                                   style="display:inline;fill:#000000;fill-opacity:0.96391757"><g
                                   data-fill-palette-color="quaternary"
                                   id="g44"
                                   style="display:inline;fill:#000000;fill-opacity:0.96391757"><g
                                   data-fill-palette-color="quaternary"
                                   id="g38"
                                   style="display:inline;fill:#000000;fill-opacity:0.96391757"><circle
                                   cx="42.692001"
                                   cy="80.595001"
                                   r="3.9000001"
                                   data-fill-palette-color="quaternary"
                                   id="circle36"
                                   style="display:inline;fill:#000000;fill-opacity:0.96391757" /></g><g
                                   data-fill-palette-color="quaternary"
                                   id="g42"
                                   style="display:inline;fill:#000000;fill-opacity:0.96391757"><path
                                   d="M 47.234,63.9 C 44.979,61.842 43.24,55.321 49.75,52.923 55.957,50.636 63.275,65.044 51.58,68.017 38.977,71.221 33.517,48.878 45.405,40.574 76.531,18.832 41.859,-0.059 45.281,30.74 c 5.776,42.406 6.482,41.893 6.698,47.784 0.15,4.093 -2.425,7.332 -6.77,6.417 -1.409,-0.297 0.298,-1.566 0.229,-1.601 -1.372,-0.686 -3.016,1.147 -4.117,0.915 8.69,4.803 11.756,-1.338 11.507,-5.946 -0.173,-3.197 -5.104,-47.366 -5.104,-48.661 0,-13.264 7.972,-11.663 7.286,-5.489 C 54.324,30.333 40.145,40.573 36.486,48.12 32.827,55.667 33.602,65.695 44.948,69.389 56.186,73.048 66.706,60.241 61.217,53.38 52.911,42.998 37.204,56.124 47.234,63.9 Z"
                                   data-fill-palette-color="quaternary"
                                   id="path40"
                                   inkscape:connector-curvature="0"
                                   style="display:inline;fill:#000000;fill-opacity:0.96391757" /></g></g><g
                                   data-fill-palette-color="quaternary"
                                   id="g48"
                                   style="display:inline;fill:#000000;fill-opacity:0.96391757"><path
                                   d="M 38.43,27.664 H 21.825 c -0.764,0 -1.384,-0.619 -1.384,-1.384 0,-0.765 0.62,-1.384 1.384,-1.384 H 38.43 c 0.764,0 1.384,0.619 1.384,1.384 0,0.765 -0.62,1.384 -1.384,1.384 z"
                                   data-fill-palette-color="quaternary"
                                   id="path46"
                                   inkscape:connector-curvature="0"
                                   style="fill:#000000;fill-opacity:0.96391757" /></g><g
                                   data-fill-palette-color="quaternary"
                                   id="g52"
                                   style="display:inline;fill:#000000;fill-opacity:0.96391757"><path
                                   d="M 77.175,27.664 H 63.337 c -0.764,0 -1.384,-0.619 -1.384,-1.384 0,-0.765 0.62,-1.384 1.384,-1.384 h 13.837 c 0.764,0 1.384,0.619 1.384,1.384 10e-4,0.765 -0.619,1.384 -1.383,1.384 z"
                                   data-fill-palette-color="quaternary"
                                   id="path50"
                                   inkscape:connector-curvature="0"
                                   style="fill:#000000;fill-opacity:0.96391757" /></g><g
                                   data-fill-palette-color="quaternary"
                                   id="g56"
                                   style="display:inline;fill:#000000;fill-opacity:0.96391757"><path
                                   d="M 34.279,40.117 H 14.906 c -0.764,0 -1.384,-0.619 -1.384,-1.384 0,-0.765 0.62,-1.384 1.384,-1.384 h 19.372 c 0.764,0 1.384,0.619 1.384,1.384 10e-4,0.766 -0.619,1.384 -1.383,1.384 z"
                                   data-fill-palette-color="quaternary"
                                   id="path54"
                                   inkscape:connector-curvature="0"
                                   style="display:inline;fill:#000000;fill-opacity:0.96391757" /></g><g
                                   data-fill-palette-color="quaternary"
                                   id="g60"
                                   style="display:inline;fill:#000000;fill-opacity:0.96391757"><path
                                   d="M 84.094,40.117 H 55.035 c -0.764,0 -1.384,-0.619 -1.384,-1.384 0,-0.765 0.62,-1.384 1.384,-1.384 h 29.059 c 0.764,0 1.384,0.619 1.384,1.384 -10e-4,0.766 -0.62,1.384 -1.384,1.384 z"
                                   data-fill-palette-color="quaternary"
                                   id="path58"
                                   inkscape:connector-curvature="0"
                                   style="fill:#000000;fill-opacity:0.96391757" /></g><g
                                   data-fill-palette-color="quaternary"
                                   id="g64"
                                   style="fill:#000000;fill-opacity:0.96391757"><path
                                   d="M 27.36,52.571 H 10.755 c -0.764,0 -1.384,-0.619 -1.384,-1.384 0,-0.765 0.62,-1.384 1.384,-1.384 H 27.36 c 0.764,0 1.384,0.619 1.384,1.384 0,0.765 -0.62,1.384 -1.384,1.384 z"
                                   data-fill-palette-color="quaternary"
                                   id="path62"
                                   inkscape:connector-curvature="0"
                                   style="fill:#000000;fill-opacity:0.96391757" /></g><g
                                   data-fill-palette-color="quaternary"
                                   id="g68"
                                   style="display:inline;fill:#000000;fill-opacity:0.96391757"><path
                                   d="M 88.245,52.571 H 67.489 c -0.764,0 -1.384,-0.619 -1.384,-1.384 0,-0.765 0.62,-1.384 1.384,-1.384 h 20.756 c 0.764,0 1.384,0.619 1.384,1.384 0,0.765 -0.62,1.384 -1.384,1.384 z"
                                   data-fill-palette-color="quaternary"
                                   id="path66"
                                   inkscape:connector-curvature="0"
                                   style="fill:#000000;fill-opacity:0.96391757" /></g><g
                                   data-fill-palette-color="quaternary"
                                   id="g72"
                                   style="fill:#000000;fill-opacity:0.96391757"><path
                                   d="M 30.128,65.025 H 16.29 c -0.764,0 -1.384,-0.619 -1.384,-1.384 0,-0.765 0.62,-1.384 1.384,-1.384 h 13.837 c 0.764,0 1.384,0.619 1.384,1.384 0,0.765 -0.619,1.384 -1.383,1.384 z"
                                   data-fill-palette-color="quaternary"
                                   id="path70"
                                   inkscape:connector-curvature="0"
                                   style="fill:#000000;fill-opacity:0.96391757" /></g><g
                                   data-fill-palette-color="quaternary"
                                   id="g76"
                                   style="fill:#000000;fill-opacity:0.96391757"><path
                                   d="M 84.094,65.025 H 67.489 c -0.764,0 -1.384,-0.619 -1.384,-1.384 0,-0.765 0.62,-1.384 1.384,-1.384 h 16.605 c 0.764,0 1.384,0.619 1.384,1.384 -10e-4,0.765 -0.62,1.384 -1.384,1.384 z"
                                   data-fill-palette-color="quaternary"
                                   id="path74"
                                   inkscape:connector-curvature="0"
                                   style="fill:#000000;fill-opacity:0.96391757" /></g><g
                                   data-fill-palette-color="quaternary"
                                   id="g80"
                                   style="display:inline;fill:#000000;fill-opacity:0.96391757"><path
                                   d="m 32.895,77.479 h -9.686 c -0.764,0 -1.384,-0.619 -1.384,-1.384 0,-0.765 0.62,-1.384 1.384,-1.384 h 9.686 c 0.764,0 1.384,0.619 1.384,1.384 0,0.765 -0.62,1.384 -1.384,1.384 z"
                                   data-fill-palette-color="quaternary"
                                   id="path78"
                                   inkscape:connector-curvature="0"
                                   style="fill:#000000;fill-opacity:0.96391757" /></g><g
                                   data-fill-palette-color="quaternary"
                                   id="g84"
                                   style="display:inline;fill:#000000;fill-opacity:0.96391757"><path
                                   d="M 75.791,77.479 H 60.57 c -0.764,0 -1.384,-0.619 -1.384,-1.384 0,-0.765 0.62,-1.384 1.384,-1.384 h 15.221 c 0.764,0 1.384,0.619 1.384,1.384 0,0.765 -0.62,1.384 -1.384,1.384 z"
                                   data-fill-palette-color="quaternary"
                                   id="path82"
                                   inkscape:connector-curvature="0"
                                   style="fill:#000000;fill-opacity:0.96391757" /></g></g></g></svg>                              </g>
                            </svg>
                          </g>
                        </svg>
                      </g>
                    </svg>
                  </g>
                  <g
                     id="g104"
                     style="display:inline" />
                </svg>
              </g>
            </svg>
          </g>
          <defs
             id="defs114" />
        </svg>
        <rect
           width="273.53839"
           height="247.2"
           visibility="hidden"
           id="rect118"
           x="0"
           y="0"
           style="display:none;visibility:hidden;fill:none;stroke:none" />
      </g>
    </svg>
  </g>
  <g
     inkscape:groupmode="layer"
     id="layer1"
     inkscape:label="Layer 1"
     style="display:inline"
     transform="translate(-210.36584,0.42276001)" />
  <path
     class="cls-1"
     d="m 107.92495,78.72396 c -8.081925,3.83618 -17.597315,16.37133 -25.460005,25.46 l 391.920005,391.91 c 9.08845,-7.86276 17.59724,-16.37155 25.46,-25.46 z"
     id="path14"
     inkscape:connector-curvature="0"
     style="display:inline;fill:#ff0000;fill-opacity:1"
     sodipodi:nodetypes="ccccc"
     inkscape:label="slash" />
</svg>
